<svg width="30" height="31" viewBox="0 0 30 31" fill="none" xmlns="http://www.w3.org/2000/svg">
<path d="M26 0.1875H4C2.34315 0.1875 1 1.53065 1 3.1875V27.1875C1 28.8444 2.34315 30.1875 4 30.1875H26C27.6569 30.1875 29 28.8444 29 27.1875V3.1875C29 1.53065 27.6569 0.1875 26 0.1875Z" fill="#E50914"/>
<path d="M17.8213 22.3566C18.4134 22.3566 18.8779 22.0733 19.2146 21.5072C19.5514 20.9406 19.7201 20.1447 19.7201 19.1184C19.7201 18.0921 19.5514 17.2956 19.2146 16.729C18.8779 16.163 18.4134 15.8797 17.8213 15.8797C17.2291 15.8797 16.7646 16.163 16.4273 16.729C16.0905 17.2956 15.9224 18.0921 15.9224 19.1184C15.9224 20.1447 16.0905 20.9406 16.4273 21.5072C16.7646 22.0733 17.2291 22.3566 17.8213 22.3566ZM17.8213 24.2584C16.9874 24.2584 16.258 24.0481 15.6326 23.6282C15.0078 23.2083 14.5249 22.6137 14.1858 21.844C13.8466 21.0742 13.6768 20.1661 13.6768 19.1184C13.6768 18.0796 13.8466 17.1733 14.1858 16.3994C14.5249 15.6254 15.0078 15.0285 15.6326 14.608C16.258 14.1881 16.9874 13.9779 17.8213 13.9779C18.6546 13.9779 19.3845 14.1881 20.0099 14.608C20.6354 15.0285 21.117 15.6254 21.4568 16.3994C21.7953 17.1733 21.9658 18.0796 21.9658 19.1184C21.9658 20.1661 21.7953 21.0742 21.4568 21.844C21.117 22.6137 20.6354 23.2083 20.0099 23.6282C19.3845 24.0481 18.6546 24.2584 17.8213 24.2584Z" fill="white"/>
<path d="M9.86664 24.0969V16.8526L7.8811 17.3658V15.1142L12.0749 14.0433V24.0969H9.86664Z" fill="white"/>
<path d="M21.0387 9.61008H21.8085C22.1886 9.61008 22.4642 9.53584 22.6352 9.38676C22.8063 9.23828 22.8918 9.02743 22.8918 8.75481C22.8918 8.48873 22.8063 8.28322 22.6352 8.13711C22.4642 7.9916 22.1886 7.91854 21.8085 7.91854H21.0387V9.61008ZM19.2332 13.0217V6.40756H22.0936C22.6323 6.40756 23.0973 6.50556 23.4905 6.70216C23.8831 6.89875 24.1872 7.17434 24.4028 7.52892C24.6178 7.8841 24.7259 8.29273 24.7259 8.75481C24.7259 9.22996 24.6178 9.64513 24.4028 9.99971C24.1872 10.3543 23.8831 10.6305 23.4905 10.8265C23.0973 11.0231 22.6323 11.1211 22.0936 11.1211H21.0387V13.0217H19.2332Z" fill="white"/>
<path d="M15.0707 11.5868C15.3938 11.5868 15.6771 11.5096 15.9212 11.3539C16.1653 11.1989 16.3554 10.9804 16.4914 10.6982C16.628 10.4161 16.6957 10.0889 16.6957 9.71468C16.6957 9.34109 16.628 9.01323 16.4914 8.73111C16.3554 8.44899 16.1653 8.23102 15.9212 8.0754C15.6771 7.92039 15.3938 7.84258 15.0707 7.84258C14.7476 7.84258 14.4643 7.92039 14.2202 8.0754C13.976 8.23102 13.786 8.44899 13.65 8.73111C13.514 9.01323 13.4457 9.34109 13.4457 9.71468C13.4457 10.0889 13.514 10.4161 13.65 10.6982C13.786 10.9804 13.976 11.1989 14.2202 11.3539C14.4643 11.5096 14.7476 11.5868 15.0707 11.5868ZM15.0707 13.1833C14.5635 13.1833 14.0996 13.0966 13.6785 12.9219C13.2574 12.7479 12.8915 12.5038 12.5809 12.1902C12.2708 11.8766 12.0315 11.5096 11.8634 11.0879C11.6953 10.6668 11.6116 10.2088 11.6116 9.71468C11.6116 9.22052 11.6953 8.76319 11.8634 8.34149C12.0315 7.92039 12.2708 7.55274 12.5809 7.23914C12.8915 6.92554 13.2574 6.68202 13.6785 6.5074C14.0996 6.33338 14.5635 6.24607 15.0707 6.24607C15.5779 6.24607 16.0418 6.33338 16.4629 6.5074C16.884 6.68202 17.2498 6.92554 17.5605 7.23914C17.8711 7.55274 18.1099 7.92039 18.2779 8.34149C18.446 8.76319 18.5298 9.22052 18.5298 9.71468C18.5298 10.2088 18.446 10.6668 18.2779 11.0879C18.1099 11.5096 17.8711 11.8766 17.5605 12.1902C17.2498 12.5038 16.884 12.7479 16.4629 12.9219C16.0418 13.0966 15.5779 13.1833 15.0707 13.1833Z" fill="white"/>
<path d="M9.46404 13.0217L7.65846 13.4541V7.96612H5.65332V6.40762H11.4692V7.96612H9.46404V13.0217Z" fill="white"/>
</svg>
