<svg width="32" height="13" viewBox="0 0 32 13" fill="none" xmlns="http://www.w3.org/2000/svg">
<path fill-rule="evenodd" clip-rule="evenodd" d="M29.1745 0.769722H29.5436C30.9838 2.4575 31.803 4.61786 31.803 6.86374C31.803 8.85754 31.1593 10.7928 30.0117 12.3726H29.6381H29.008H28.6389C29.9307 10.8334 30.6598 8.89355 30.6598 6.86374C30.6598 4.5773 29.7282 2.37648 28.1124 0.769722H28.4815H29.1745ZM9.59097 12.4171H12.1384V0.778224H8.95637L0.603027 12.4171H4.34313L5.32428 10.8779H9.59097V12.4171ZM6.92427 8.45246H9.60671V4.2848L6.92427 8.45246ZM16.5955 3.50344C18.3102 3.50344 19.6919 4.89411 19.6919 6.59997C19.6919 8.31024 18.3102 9.70098 16.5955 9.70098H15.7853V3.50344H16.5955ZM16.9105 12.4104C20.1195 12.4104 22.7299 9.80446 22.7299 6.59997C22.7299 3.38191 20.1465 0.780499 16.9375 0.780499H16.9015H13.3414V12.4149H16.9105V12.4104ZM26.6162 0.769722H26.2472H25.5541H25.1851C26.8008 2.37648 27.7324 4.5773 27.7324 6.86374C27.7324 8.89355 27.0034 10.8334 25.7116 12.3726H26.0806H26.7108H27.0754C28.232 10.7928 28.8756 8.85754 28.8756 6.86374C28.8756 4.61786 28.0565 2.4575 26.6162 0.769722ZM23.3198 0.769722H23.6889C25.1292 2.4575 25.9393 4.61786 25.9393 6.86374C25.9393 8.85754 25.3047 10.7928 24.1481 12.3726H23.779H23.1534H22.7844C24.0671 10.8334 24.7961 8.89355 24.7961 6.86374C24.7961 4.5773 23.8735 2.37648 22.2577 0.769722H22.6178H23.3198Z" fill="white"/>
</svg>
