<svg width="100%" height="25,6%" viewBox="0 0 200 54" fill="none" xmlns="http://www.w3.org/2000/svg">
<path d="M189.112 25.7039L199.8 54C196.65 53.5502 193.502 52.9867 190.296 52.479L184.275 36.8443L178.089 51.1884C175.052 50.6807 172.069 50.5117 169.033 50.1175L179.889 25.3675L170.042 0H179.156L184.667 14.1732L190.575 0H199.798L189.112 25.7039ZM162.846 0H154.577V49.05C157.277 49.2193 160.089 49.3308 162.846 49.6674V0ZM147.433 48.4867C139.896 47.9808 132.358 47.5327 124.652 47.3617V0.000217314H133.089V39.375C137.927 39.4867 142.764 39.8791 147.433 40.1041V48.4867ZM115.65 19.1826V27.6191H104.119V46.7999H95.7963V0H119.421V8.43658H104.121V19.1828H115.652L115.65 19.1826ZM81.6193 8.43658V47.25C78.806 47.25 75.9387 47.25 73.181 47.3617V8.43658H64.4619V0H90.3923V8.43658H81.6193ZM55.3504 28.0674C51.6387 28.0674 47.2502 28.0674 44.1002 28.2385V40.7808C49.0502 40.4424 54.0002 40.0499 59.0058 39.8809V47.9808L35.6637 49.8384V0H59.0043V8.43658H44.1V19.7999C47.3634 19.7999 52.3693 19.6309 55.35 19.6309V28.0692L55.3504 28.0674ZM8.60413 23.3424V52.8174C5.56933 53.1557 2.86746 53.5499 0 54V0H8.04432L19.012 30.6578V0H27.4503V50.5117C24.4694 51.0193 21.4311 51.1884 18.2253 51.6367L8.60413 23.3424Z" fill="#E50914"/>
</svg>
