<svg width="23" height="24" viewBox="0 0 23 24" fill="none" xmlns="http://www.w3.org/2000/svg">
<path fill-rule="evenodd" clip-rule="evenodd" d="M9.2352 8.12784C9.47364 7.74641 9.6 7.30565 9.6 6.85584V2.4H10.6052C11.6582 2.4 12.5142 3.0635 12.7288 3.97351C12.988 5.0731 13.2 6.27259 13.2 7.2C13.2 7.90174 13.0771 8.63028 12.9043 9.30047L12.5178 10.8H14.0663H17.4C18.3941 10.8 19.2 11.6059 19.2 12.6C19.2 12.7115 19.19 12.8197 19.1712 12.9239L19.0746 13.4579L19.4117 13.883C19.6553 14.1902 19.8 14.5765 19.8 15C19.8 15.4235 19.6553 15.8098 19.4117 16.117L19.0746 16.5421L19.1712 17.0761C19.19 17.1804 19.2 17.2885 19.2 17.4C19.2 17.9881 18.9192 18.5104 18.4793 18.8407L18 19.2007V19.8001C17.9999 20.7942 17.1941 21.6 16.2 21.6H13.2H12H11.5474C10.3865 21.6 9.23328 21.4128 8.13208 21.0458L6.34039 20.4486C5.06948 20.0249 3.7394 19.8061 2.4 19.8001V14.1052L4.8427 13.4072C5.69912 13.1626 6.43444 12.6091 6.9065 11.8537L9.2352 8.12784ZM9 0C8.00588 0 7.2 0.805884 7.2 1.8V6.85584L4.8713 10.5817C4.71395 10.8335 4.46885 11.018 4.18337 11.0996L1.74067 11.7976C0.71034 12.0919 0 13.0336 0 14.1052V19.8562C0 21.1506 1.04936 22.2 2.34383 22.2C3.44425 22.2 4.53749 22.3774 5.58145 22.7254L7.37312 23.3226C8.71908 23.7713 10.1286 24 11.5474 24H12H13.2H16.2C18.323 24 20.0783 22.4248 20.3604 20.3792C21.1247 19.6195 21.6 18.5651 21.6 17.4C21.6 17.3243 21.598 17.249 21.594 17.1742C21.9784 16.5396 22.2 15.7946 22.2 15C22.2 14.2054 21.9784 13.4604 21.594 12.826C21.598 12.751 21.6 12.6757 21.6 12.6C21.6 10.2804 19.7196 8.4 17.4 8.4H15.5206C15.5702 8.0106 15.6 7.60769 15.6 7.2C15.6 5.98638 15.3346 4.56733 15.0647 3.42282C14.5681 1.31642 12.6514 0 10.6052 0H9Z" fill="white"/>
</svg>
