<svg width="21" height="16" viewBox="0 0 21 16" fill="none" xmlns="http://www.w3.org/2000/svg">
<path fill-rule="evenodd" clip-rule="evenodd" d="M9.77775 0.888913C9.77775 0.529395 9.56122 0.205271 9.22904 0.067689C8.89686 -0.0698928 8.51454 0.00615155 8.26032 0.260373L4.07625 4.44446H0.888886C0.397968 4.44446 0 4.84242 0 5.33334V10.6666C0 11.1576 0.397968 11.5555 0.888886 11.5555H4.07625L8.26032 15.7396C8.51454 15.9938 8.89686 16.0699 9.22904 15.9323C9.56122 15.7947 9.77775 15.4706 9.77775 15.1111V0.888913ZM5.07297 5.96189L7.99998 3.03487V12.9651L5.07297 10.0381L4.81262 9.77775H4.44443H1.77777V6.2222H4.44443H4.81262L5.07297 5.96189ZM13.5936 5.96189L15.6318 7.99998L13.5936 10.0381L14.8507 11.2952L16.8888 9.25704L18.927 11.2952L20.184 10.0381L18.1459 7.99998L20.184 5.96189L18.927 4.7048L16.8888 6.74291L14.8507 4.7048L13.5936 5.96189Z" fill="white"/>
</svg>
