<svg width="17" height="15" viewBox="0 0 17 15" fill="none" xmlns="http://www.w3.org/2000/svg">
<path fill-rule="evenodd" clip-rule="evenodd" d="M0.203125 1.34375C0.203125 0.92954 0.538911 0.59375 0.953125 0.59375H15.4531C15.8673 0.59375 16.2031 0.92954 16.2031 1.34375V10.8438C16.2031 11.2579 15.8673 11.5938 15.4531 11.5938H12.9531V13.5938C12.9531 13.8589 12.8131 14.1044 12.5848 14.2394C12.3566 14.3744 12.074 14.3787 11.8417 14.2509L7.01049 11.5938H0.953125C0.538911 11.5938 0.203125 11.2579 0.203125 10.8438V1.34375ZM1.70312 2.09375V10.0938H7.20312H7.39576L7.56457 10.1866L11.4531 12.3252V10.8438V10.0938H12.2031H14.7031V2.09375H1.70312ZM6.20312 5.34375H3.20312V3.84375H6.20312V5.34375ZM13.2031 6.84375H10.2031V8.34375H13.2031V6.84375ZM8.20312 8.34375H3.20312V6.84375H8.20312V8.34375ZM13.2031 3.84375H8.20312V5.34375H13.2031V3.84375Z" fill="white"/>
</svg>
